<svg xmlns="http://www.w3.org/2000/svg" width="1440" height="1040" viewBox="0 0 720 520" fill="none">
  <defs>
    <filter id="glow" x="-50%" y="-50%" width="200%" height="200%">
      <feGaussianBlur stdDeviation="5" result="blur"/>
      <feMerge><feMergeNode in="blur"/><feMergeNode in="SourceGraphic"/></feMerge>
    </filter>
    <linearGradient id="panel" x1="0" x2="1" y1="0" y2="1">
      <stop offset="0" stop-color="#2b301f"/>
      <stop offset="1" stop-color="#111112"/>
    </linearGradient>
  </defs>
  <style>
    .a{stroke:#d2ff00;stroke-width:2;stroke-linecap:square;stroke-linejoin:miter;filter:url(#glow)}
    .b{stroke:#d2ff00;stroke-width:4;stroke-linecap:square;stroke-linejoin:miter;filter:url(#glow)}
    .c{fill:#d2ff00;filter:url(#glow)}
    .d{fill:#f4f4ed;opacity:.72}
    .dark{stroke:#141414;stroke-width:4;stroke-linecap:square}
    .box{fill:url(#panel);stroke:#f4f4ed;stroke-width:2;opacity:.96}
    .screen,.panel,.cube{fill:#151812;stroke:#d2ff00;stroke-width:2;opacity:.94}
    .paper{fill:#f4f4ed;stroke:#111112;stroke-width:2;opacity:.95}
    .side{opacity:.74}
    .tilt{transform:rotate(-8deg);transform-origin:center}
    .ring,.orbit{stroke:#d2ff00;stroke-width:3;opacity:.84}
    .orbit{stroke-dasharray:12 18;opacity:.7}
    .map,.wave{stroke:#f4f4ed;stroke-width:3;opacity:.74}
    .hand{fill:#f4f4ed;stroke:#111112;stroke-width:3;opacity:.92}
    .highlight,.petal{fill:#d2ff00;opacity:.55}
    .hanger{stroke:#d2ff00;stroke-width:3;fill:none;opacity:.86}
    .thick{stroke-width:5}
  </style>
  <g opacity=".16"><line class="b" x1="76" y1="242" x2="600" y2="190" opacity="0.72"/><line class="a" x1="105" y1="289" x2="660" y2="237" opacity="0.35"/><line class="a" x1="134" y1="336" x2="720" y2="284" opacity="0.35"/><line class="a" x1="163" y1="383" x2="780" y2="331" opacity="0.35"/><line class="b" x1="-68" y1="430" x2="580" y2="378" opacity="0.35"/><line class="a" x1="-39" y1="477" x2="260" y2="425" opacity="0.72"/><line class="a" x1="-10" y1="104" x2="320" y2="52" opacity="0.35"/><line class="a" x1="19" y1="151" x2="380" y2="99" opacity="0.35"/><line class="b" x1="48" y1="198" x2="440" y2="146" opacity="0.35"/><line class="a" x1="77" y1="245" x2="500" y2="193" opacity="0.35"/><line class="a" x1="106" y1="292" x2="560" y2="240" opacity="0.72"/><line class="a" x1="135" y1="339" x2="620" y2="287" opacity="0.35"/><line class="b" x1="164" y1="386" x2="680" y2="334" opacity="0.35"/><line class="a" x1="-67" y1="433" x2="480" y2="381" opacity="0.35"/><line class="a" x1="-38" y1="480" x2="540" y2="428" opacity="0.35"/><line class="a" x1="-9" y1="107" x2="600" y2="55" opacity="0.72"/><line class="b" x1="20" y1="154" x2="660" y2="102" opacity="0.35"/><line class="a" x1="49" y1="201" x2="340" y2="149" opacity="0.35"/><line class="a" x1="78" y1="248" x2="400" y2="196" opacity="0.35"/><line class="a" x1="107" y1="295" x2="460" y2="243" opacity="0.35"/><line class="b" x1="136" y1="342" x2="520" y2="290" opacity="0.72"/><line class="a" x1="165" y1="389" x2="580" y2="337" opacity="0.35"/><line class="a" x1="-66" y1="436" x2="380" y2="384" opacity="0.35"/><line class="a" x1="-37" y1="483" x2="440" y2="431" opacity="0.35"/></g>
  <g>
      <rect class="box" x="146" y="118" width="250" height="208" />
      <rect class="screen tilt" x="224" y="72" width="214" height="142" />
      <rect class="paper" x="92" y="256" width="182" height="144" />
      <rect class="box side" x="430" y="206" width="128" height="176" />
      <line class="b thick" x1="188" y1="168" x2="356" y2="168" />
      <line class="a" x1="188" y1="202" x2="326" y2="202" />
      <line class="a" x1="188" y1="236" x2="388" y2="236" />
      <line class="dark" x1="128" y1="296" x2="226" y2="296" />
      <line class="dark" x1="128" y1="330" x2="244" y2="330" />
      <circle class="ring" cx="496" cy="264" r="36" />
      <line class="b thick" x1="522" y1="290" x2="586" y2="346" />
      <line class="b" x1="55" y1="209" x2="576" y2="157" opacity="0.72"/><line class="a" x1="84" y1="256" x2="636" y2="204" opacity="0.35"/><line class="a" x1="113" y1="303" x2="696" y2="251" opacity="0.35"/><line class="a" x1="142" y1="350" x2="756" y2="298" opacity="0.35"/><line class="b" x1="171" y1="397" x2="816" y2="345" opacity="0.35"/><line class="a" x1="-60" y1="444" x2="236" y2="392" opacity="0.72"/><line class="a" x1="-31" y1="491" x2="296" y2="439" opacity="0.35"/><line class="a" x1="-2" y1="118" x2="356" y2="66" opacity="0.35"/><line class="b" x1="27" y1="165" x2="416" y2="113" opacity="0.35"/><line class="a" x1="56" y1="212" x2="476" y2="160" opacity="0.35"/><line class="a" x1="85" y1="259" x2="536" y2="207" opacity="0.72"/><line class="a" x1="114" y1="306" x2="596" y2="254" opacity="0.35"/><line class="b" x1="143" y1="353" x2="656" y2="301" opacity="0.35"/><line class="a" x1="172" y1="400" x2="716" y2="348" opacity="0.35"/>
    </g>
  <g opacity=".38"><circle class="c" cx="406" cy="356" r="3" /><circle class="d" cx="473" cy="397" r="4" /><circle class="d" cx="540" cy="438" r="5" /><circle class="c" cx="607" cy="89" r="6" /><circle class="d" cx="129" cy="130" r="7" /><circle class="d" cx="196" cy="171" r="8" /><circle class="c" cx="263" cy="212" r="3" /><circle class="d" cx="330" cy="253" r="4" /><circle class="d" cx="397" cy="294" r="5" /><circle class="c" cx="464" cy="335" r="6" /></g>
</svg>