<svg xmlns="http://www.w3.org/2000/svg" width="1440" height="1040" viewBox="0 0 720 520" fill="none">
  <defs>
    <filter id="glow" x="-50%" y="-50%" width="200%" height="200%">
      <feGaussianBlur stdDeviation="5" result="blur"/>
      <feMerge><feMergeNode in="blur"/><feMergeNode in="SourceGraphic"/></feMerge>
    </filter>
    <linearGradient id="panel" x1="0" x2="1" y1="0" y2="1">
      <stop offset="0" stop-color="#2b301f"/>
      <stop offset="1" stop-color="#111112"/>
    </linearGradient>
  </defs>
  <style>
    .a{stroke:#b9f500;stroke-width:2;stroke-linecap:square;stroke-linejoin:miter;filter:url(#glow)}
    .b{stroke:#b9f500;stroke-width:4;stroke-linecap:square;stroke-linejoin:miter;filter:url(#glow)}
    .c{fill:#b9f500;filter:url(#glow)}
    .d{fill:#f4f4ed;opacity:.72}
    .dark{stroke:#141414;stroke-width:4;stroke-linecap:square}
    .box{fill:url(#panel);stroke:#f4f4ed;stroke-width:2;opacity:.96}
    .screen,.panel,.cube{fill:#151812;stroke:#b9f500;stroke-width:2;opacity:.94}
    .paper{fill:#f4f4ed;stroke:#111112;stroke-width:2;opacity:.95}
    .side{opacity:.74}
    .tilt{transform:rotate(-8deg);transform-origin:center}
    .ring,.orbit{stroke:#b9f500;stroke-width:3;opacity:.84}
    .orbit{stroke-dasharray:12 18;opacity:.7}
    .map,.wave{stroke:#f4f4ed;stroke-width:3;opacity:.74}
    .hand{fill:#f4f4ed;stroke:#111112;stroke-width:3;opacity:.92}
    .highlight,.petal{fill:#b9f500;opacity:.55}
    .hanger{stroke:#b9f500;stroke-width:3;fill:none;opacity:.86}
    .thick{stroke-width:5}
  </style>
  <g opacity=".16"><line class="b" x1="-24" y1="142" x2="300" y2="90" opacity="0.72"/><line class="a" x1="5" y1="189" x2="360" y2="137" opacity="0.35"/><line class="a" x1="34" y1="236" x2="420" y2="184" opacity="0.35"/><line class="a" x1="63" y1="283" x2="480" y2="231" opacity="0.35"/><line class="b" x1="92" y1="330" x2="540" y2="278" opacity="0.35"/><line class="a" x1="121" y1="377" x2="600" y2="325" opacity="0.72"/><line class="a" x1="150" y1="424" x2="660" y2="372" opacity="0.35"/><line class="a" x1="179" y1="471" x2="720" y2="419" opacity="0.35"/><line class="b" x1="-52" y1="98" x2="520" y2="46" opacity="0.35"/><line class="a" x1="-23" y1="145" x2="580" y2="93" opacity="0.35"/><line class="a" x1="6" y1="192" x2="640" y2="140" opacity="0.72"/><line class="a" x1="35" y1="239" x2="320" y2="187" opacity="0.35"/><line class="b" x1="64" y1="286" x2="380" y2="234" opacity="0.35"/><line class="a" x1="93" y1="333" x2="440" y2="281" opacity="0.35"/><line class="a" x1="122" y1="380" x2="500" y2="328" opacity="0.35"/><line class="a" x1="151" y1="427" x2="560" y2="375" opacity="0.72"/><line class="b" x1="180" y1="474" x2="620" y2="422" opacity="0.35"/><line class="a" x1="-51" y1="101" x2="420" y2="49" opacity="0.35"/><line class="a" x1="-22" y1="148" x2="480" y2="96" opacity="0.35"/><line class="a" x1="7" y1="195" x2="540" y2="143" opacity="0.35"/><line class="b" x1="36" y1="242" x2="600" y2="190" opacity="0.72"/><line class="a" x1="65" y1="289" x2="660" y2="237" opacity="0.35"/><line class="a" x1="94" y1="336" x2="720" y2="284" opacity="0.35"/><line class="a" x1="123" y1="383" x2="780" y2="331" opacity="0.35"/></g>
  <g>
      <rect class="box" x="96" y="306" width="98" height="98" />
      <rect class="box side" x="218" y="244" width="82" height="160" />
      <rect class="box" x="328" y="184" width="118" height="220" />
      <rect class="box side" x="468" y="270" width="94" height="134" />
      <path class="map" d="M84 248 C188 152 276 282 352 198 S520 146 628 232"/>
      <path class="map b" d="M106 342 C196 292 268 382 356 306 S506 266 602 340"/>
      <circle class="ring" cx="352" cy="198" r="46" />
      <circle class="c" cx="468" cy="270" r="28" />
      <circle class="c" cx="326" cy="381" r="8" /><circle class="d" cx="393" cy="422" r="3" /><circle class="d" cx="460" cy="463" r="4" /><circle class="c" cx="527" cy="114" r="5" /><circle class="d" cx="594" cy="155" r="6" /><circle class="d" cx="116" cy="196" r="7" /><circle class="c" cx="183" cy="237" r="8" /><circle class="d" cx="250" cy="278" r="3" /><circle class="d" cx="317" cy="319" r="4" /><circle class="c" cx="384" cy="360" r="5" /><circle class="d" cx="451" cy="401" r="6" /><circle class="d" cx="518" cy="442" r="7" /><circle class="c" cx="585" cy="93" r="8" /><circle class="d" cx="107" cy="134" r="3" /><circle class="d" cx="174" cy="175" r="4" /><circle class="c" cx="241" cy="216" r="5" /><circle class="d" cx="308" cy="257" r="6" /><circle class="d" cx="375" cy="298" r="7" /><circle class="c" cx="442" cy="339" r="8" /><circle class="d" cx="509" cy="380" r="3" />
    </g>
  <g opacity=".38"><circle class="c" cx="421" cy="76" r="7" /><circle class="d" cx="488" cy="117" r="8" /><circle class="d" cx="555" cy="158" r="3" /><circle class="c" cx="622" cy="199" r="4" /><circle class="d" cx="144" cy="240" r="5" /><circle class="d" cx="211" cy="281" r="6" /><circle class="c" cx="278" cy="322" r="7" /><circle class="d" cx="345" cy="363" r="8" /><circle class="d" cx="412" cy="404" r="3" /><circle class="c" cx="479" cy="445" r="4" /></g>
</svg>