<svg xmlns="http://www.w3.org/2000/svg" width="1440" height="1040" viewBox="0 0 720 520" fill="none">
  <defs>
    <filter id="glow" x="-50%" y="-50%" width="200%" height="200%">
      <feGaussianBlur stdDeviation="5" result="blur"/>
      <feMerge><feMergeNode in="blur"/><feMergeNode in="SourceGraphic"/></feMerge>
    </filter>
    <linearGradient id="panel" x1="0" x2="1" y1="0" y2="1">
      <stop offset="0" stop-color="#2b301f"/>
      <stop offset="1" stop-color="#111112"/>
    </linearGradient>
  </defs>
  <style>
    .a{stroke:#d2ff00;stroke-width:2;stroke-linecap:square;stroke-linejoin:miter;filter:url(#glow)}
    .b{stroke:#d2ff00;stroke-width:4;stroke-linecap:square;stroke-linejoin:miter;filter:url(#glow)}
    .c{fill:#d2ff00;filter:url(#glow)}
    .d{fill:#f4f4ed;opacity:.72}
    .dark{stroke:#141414;stroke-width:4;stroke-linecap:square}
    .box{fill:url(#panel);stroke:#f4f4ed;stroke-width:2;opacity:.96}
    .screen,.panel,.cube{fill:#151812;stroke:#d2ff00;stroke-width:2;opacity:.94}
    .paper{fill:#f4f4ed;stroke:#111112;stroke-width:2;opacity:.95}
    .side{opacity:.74}
    .tilt{transform:rotate(-8deg);transform-origin:center}
    .ring,.orbit{stroke:#d2ff00;stroke-width:3;opacity:.84}
    .orbit{stroke-dasharray:12 18;opacity:.7}
    .map,.wave{stroke:#f4f4ed;stroke-width:3;opacity:.74}
    .hand{fill:#f4f4ed;stroke:#111112;stroke-width:3;opacity:.92}
    .highlight,.petal{fill:#d2ff00;opacity:.55}
    .hanger{stroke:#d2ff00;stroke-width:3;fill:none;opacity:.86}
    .thick{stroke-width:5}
  </style>
  <g opacity=".16"><line class="b" x1="18" y1="128" x2="608" y2="76" opacity="0.72"/><line class="a" x1="47" y1="175" x2="668" y2="123" opacity="0.35"/><line class="a" x1="76" y1="222" x2="728" y2="170" opacity="0.35"/><line class="a" x1="105" y1="269" x2="408" y2="217" opacity="0.35"/><line class="b" x1="134" y1="316" x2="468" y2="264" opacity="0.35"/><line class="a" x1="163" y1="363" x2="528" y2="311" opacity="0.72"/><line class="a" x1="-68" y1="410" x2="328" y2="358" opacity="0.35"/><line class="a" x1="-39" y1="457" x2="388" y2="405" opacity="0.35"/><line class="b" x1="-10" y1="84" x2="448" y2="32" opacity="0.35"/><line class="a" x1="19" y1="131" x2="508" y2="79" opacity="0.35"/><line class="a" x1="48" y1="178" x2="568" y2="126" opacity="0.72"/><line class="a" x1="77" y1="225" x2="628" y2="173" opacity="0.35"/><line class="b" x1="106" y1="272" x2="688" y2="220" opacity="0.35"/><line class="a" x1="135" y1="319" x2="748" y2="267" opacity="0.35"/><line class="a" x1="164" y1="366" x2="808" y2="314" opacity="0.35"/><line class="a" x1="-67" y1="413" x2="228" y2="361" opacity="0.72"/><line class="b" x1="-38" y1="460" x2="288" y2="408" opacity="0.35"/><line class="a" x1="-9" y1="87" x2="348" y2="35" opacity="0.35"/><line class="a" x1="20" y1="134" x2="408" y2="82" opacity="0.35"/><line class="a" x1="49" y1="181" x2="468" y2="129" opacity="0.35"/><line class="b" x1="78" y1="228" x2="528" y2="176" opacity="0.72"/><line class="a" x1="107" y1="275" x2="588" y2="223" opacity="0.35"/><line class="a" x1="136" y1="322" x2="648" y2="270" opacity="0.35"/><line class="a" x1="165" y1="369" x2="708" y2="317" opacity="0.35"/></g>
  <g>
      <rect class="screen" x="132" y="108" width="456" height="300" />
      <circle class="ring" cx="196" cy="214" r="26" /><line class="b" x1="222" y1="214" x2="260" y2="278" /><circle class="ring" cx="278" cy="278" r="26" /><line class="b" x1="304" y1="278" x2="342" y2="214" /><circle class="ring" cx="360" cy="214" r="26" /><line class="b" x1="386" y1="214" x2="424" y2="278" /><circle class="ring" cx="442" cy="278" r="26" /><line class="b" x1="468" y1="278" x2="506" y2="214" /><circle class="ring" cx="524" cy="214" r="26" /><line class="b" x1="550" y1="214" x2="588" y2="278" />
      <line class="a" x1="170" y1="142" x2="550" y2="142" />
      <line class="a" x1="170" y1="372" x2="550" y2="372" />
      <circle class="c" cx="475" cy="223" r="4" /><circle class="d" cx="542" cy="264" r="5" /><circle class="d" cx="609" cy="305" r="6" /><circle class="c" cx="131" cy="346" r="7" /><circle class="d" cx="198" cy="387" r="8" /><circle class="d" cx="265" cy="428" r="3" /><circle class="c" cx="332" cy="79" r="4" /><circle class="d" cx="399" cy="120" r="5" /><circle class="d" cx="466" cy="161" r="6" /><circle class="c" cx="533" cy="202" r="7" /><circle class="d" cx="600" cy="243" r="8" /><circle class="d" cx="122" cy="284" r="3" /><circle class="c" cx="189" cy="325" r="4" /><circle class="d" cx="256" cy="366" r="5" />
    </g>
  <g opacity=".38"><circle class="c" cx="570" cy="308" r="3" /><circle class="d" cx="92" cy="349" r="4" /><circle class="d" cx="159" cy="390" r="5" /><circle class="c" cx="226" cy="431" r="6" /><circle class="d" cx="293" cy="82" r="7" /><circle class="d" cx="360" cy="123" r="8" /><circle class="c" cx="427" cy="164" r="3" /><circle class="d" cx="494" cy="205" r="4" /><circle class="d" cx="561" cy="246" r="5" /><circle class="c" cx="628" cy="287" r="6" /></g>
</svg>