<svg xmlns="http://www.w3.org/2000/svg" width="1440" height="1040" viewBox="0 0 720 520" fill="none">
  <defs>
    <filter id="glow" x="-50%" y="-50%" width="200%" height="200%">
      <feGaussianBlur stdDeviation="5" result="blur"/>
      <feMerge><feMergeNode in="blur"/><feMergeNode in="SourceGraphic"/></feMerge>
    </filter>
    <linearGradient id="panel" x1="0" x2="1" y1="0" y2="1">
      <stop offset="0" stop-color="#2b301f"/>
      <stop offset="1" stop-color="#111112"/>
    </linearGradient>
  </defs>
  <style>
    .a{stroke:#d2ff00;stroke-width:2;stroke-linecap:square;stroke-linejoin:miter;filter:url(#glow)}
    .b{stroke:#d2ff00;stroke-width:4;stroke-linecap:square;stroke-linejoin:miter;filter:url(#glow)}
    .c{fill:#d2ff00;filter:url(#glow)}
    .d{fill:#f4f4ed;opacity:.72}
    .dark{stroke:#141414;stroke-width:4;stroke-linecap:square}
    .box{fill:url(#panel);stroke:#f4f4ed;stroke-width:2;opacity:.96}
    .screen,.panel,.cube{fill:#151812;stroke:#d2ff00;stroke-width:2;opacity:.94}
    .paper{fill:#f4f4ed;stroke:#111112;stroke-width:2;opacity:.95}
    .side{opacity:.74}
    .tilt{transform:rotate(-8deg);transform-origin:center}
    .ring,.orbit{stroke:#d2ff00;stroke-width:3;opacity:.84}
    .orbit{stroke-dasharray:12 18;opacity:.7}
    .map,.wave{stroke:#f4f4ed;stroke-width:3;opacity:.74}
    .hand{fill:#f4f4ed;stroke:#111112;stroke-width:3;opacity:.92}
    .highlight,.petal{fill:#d2ff00;opacity:.55}
    .hanger{stroke:#d2ff00;stroke-width:3;fill:none;opacity:.86}
    .thick{stroke-width:5}
  </style>
  <g opacity=".16"><line class="b" x1="136" y1="382" x2="520" y2="330" opacity="0.72"/><line class="a" x1="165" y1="429" x2="580" y2="377" opacity="0.35"/><line class="a" x1="-66" y1="476" x2="380" y2="424" opacity="0.35"/><line class="a" x1="-37" y1="103" x2="440" y2="51" opacity="0.35"/><line class="b" x1="-8" y1="150" x2="500" y2="98" opacity="0.35"/><line class="a" x1="21" y1="197" x2="560" y2="145" opacity="0.72"/><line class="a" x1="50" y1="244" x2="620" y2="192" opacity="0.35"/><line class="a" x1="79" y1="291" x2="680" y2="239" opacity="0.35"/><line class="b" x1="108" y1="338" x2="740" y2="286" opacity="0.35"/><line class="a" x1="137" y1="385" x2="420" y2="333" opacity="0.35"/><line class="a" x1="166" y1="432" x2="480" y2="380" opacity="0.72"/><line class="a" x1="-65" y1="479" x2="280" y2="427" opacity="0.35"/><line class="b" x1="-36" y1="106" x2="340" y2="54" opacity="0.35"/><line class="a" x1="-7" y1="153" x2="400" y2="101" opacity="0.35"/><line class="a" x1="22" y1="200" x2="460" y2="148" opacity="0.35"/><line class="a" x1="51" y1="247" x2="520" y2="195" opacity="0.72"/><line class="b" x1="80" y1="294" x2="580" y2="242" opacity="0.35"/><line class="a" x1="109" y1="341" x2="640" y2="289" opacity="0.35"/><line class="a" x1="138" y1="388" x2="700" y2="336" opacity="0.35"/><line class="a" x1="167" y1="435" x2="760" y2="383" opacity="0.35"/><line class="b" x1="-64" y1="482" x2="560" y2="430" opacity="0.72"/><line class="a" x1="-35" y1="109" x2="620" y2="57" opacity="0.35"/><line class="a" x1="-6" y1="156" x2="300" y2="104" opacity="0.35"/><line class="a" x1="23" y1="203" x2="360" y2="151" opacity="0.35"/></g>
  <g>
      <rect class="cube" x="294" y="196" width="120" height="104" />
      <rect class="panel" x="150" y="166" width="132" height="72" />
      <rect class="panel" x="426" y="262" width="132" height="72" />
      <line class="b thick" x1="282" y1="220" x2="414" y2="282" />
      <line class="b thick" x1="414" y1="218" x2="282" y2="282" />
      <circle class="ring" cx="354" cy="250" r="136" />
      <circle class="orbit" cx="354" cy="250" r="206" />
      <path class="map" d="M74 382 C178 282 284 464 382 360 S562 256 650 342"/>
      <line class="a" x1="80" y1="426" x2="234" y2="310" />
      <line class="a" x1="80" y1="426" x2="308" y2="372" />
      <line class="a" x1="80" y1="426" x2="394" y2="392" />
      <circle class="c" cx="376" cy="231" r="8" /><circle class="d" cx="443" cy="272" r="3" /><circle class="d" cx="510" cy="313" r="4" /><circle class="c" cx="577" cy="354" r="5" /><circle class="d" cx="99" cy="395" r="6" /><circle class="d" cx="166" cy="436" r="7" /><circle class="c" cx="233" cy="87" r="8" /><circle class="d" cx="300" cy="128" r="3" /><circle class="d" cx="367" cy="169" r="4" /><circle class="c" cx="434" cy="210" r="5" /><circle class="d" cx="501" cy="251" r="6" /><circle class="d" cx="568" cy="292" r="7" /><circle class="c" cx="635" cy="333" r="8" /><circle class="d" cx="157" cy="374" r="3" />
    </g>
  <g opacity=".38"><circle class="c" cx="471" cy="316" r="7" /><circle class="d" cx="538" cy="357" r="8" /><circle class="d" cx="605" cy="398" r="3" /><circle class="c" cx="127" cy="439" r="4" /><circle class="d" cx="194" cy="90" r="5" /><circle class="d" cx="261" cy="131" r="6" /><circle class="c" cx="328" cy="172" r="7" /><circle class="d" cx="395" cy="213" r="8" /><circle class="d" cx="462" cy="254" r="3" /><circle class="c" cx="529" cy="295" r="4" /></g>
</svg>