<svg xmlns="http://www.w3.org/2000/svg" width="1440" height="1040" viewBox="0 0 720 520" fill="none">
  <defs>
    <filter id="glow" x="-50%" y="-50%" width="200%" height="200%">
      <feGaussianBlur stdDeviation="5" result="blur"/>
      <feMerge><feMergeNode in="blur"/><feMergeNode in="SourceGraphic"/></feMerge>
    </filter>
    <linearGradient id="panel" x1="0" x2="1" y1="0" y2="1">
      <stop offset="0" stop-color="#2b301f"/>
      <stop offset="1" stop-color="#111112"/>
    </linearGradient>
  </defs>
  <style>
    .a{stroke:#d2ff00;stroke-width:2;stroke-linecap:square;stroke-linejoin:miter;filter:url(#glow)}
    .b{stroke:#d2ff00;stroke-width:4;stroke-linecap:square;stroke-linejoin:miter;filter:url(#glow)}
    .c{fill:#d2ff00;filter:url(#glow)}
    .d{fill:#f4f4ed;opacity:.72}
    .dark{stroke:#141414;stroke-width:4;stroke-linecap:square}
    .box{fill:url(#panel);stroke:#f4f4ed;stroke-width:2;opacity:.96}
    .screen,.panel,.cube{fill:#151812;stroke:#d2ff00;stroke-width:2;opacity:.94}
    .paper{fill:#f4f4ed;stroke:#111112;stroke-width:2;opacity:.95}
    .side{opacity:.74}
    .tilt{transform:rotate(-8deg);transform-origin:center}
    .ring,.orbit{stroke:#d2ff00;stroke-width:3;opacity:.84}
    .orbit{stroke-dasharray:12 18;opacity:.7}
    .map,.wave{stroke:#f4f4ed;stroke-width:3;opacity:.74}
    .hand{fill:#f4f4ed;stroke:#111112;stroke-width:3;opacity:.92}
    .highlight,.petal{fill:#d2ff00;opacity:.55}
    .hanger{stroke:#d2ff00;stroke-width:3;fill:none;opacity:.86}
    .thick{stroke-width:5}
  </style>
  <g opacity=".16"><line class="b" x1="186" y1="392" x2="800" y2="340" opacity="0.72"/><line class="a" x1="-45" y1="439" x2="600" y2="387" opacity="0.35"/><line class="a" x1="-16" y1="486" x2="280" y2="434" opacity="0.35"/><line class="a" x1="13" y1="113" x2="340" y2="61" opacity="0.35"/><line class="b" x1="42" y1="160" x2="400" y2="108" opacity="0.35"/><line class="a" x1="71" y1="207" x2="460" y2="155" opacity="0.72"/><line class="a" x1="100" y1="254" x2="520" y2="202" opacity="0.35"/><line class="a" x1="129" y1="301" x2="580" y2="249" opacity="0.35"/><line class="b" x1="158" y1="348" x2="640" y2="296" opacity="0.35"/><line class="a" x1="187" y1="395" x2="700" y2="343" opacity="0.35"/><line class="a" x1="-44" y1="442" x2="500" y2="390" opacity="0.72"/><line class="a" x1="-15" y1="489" x2="560" y2="437" opacity="0.35"/><line class="b" x1="14" y1="116" x2="620" y2="64" opacity="0.35"/><line class="a" x1="43" y1="163" x2="680" y2="111" opacity="0.35"/><line class="a" x1="72" y1="210" x2="360" y2="158" opacity="0.35"/><line class="a" x1="101" y1="257" x2="420" y2="205" opacity="0.72"/><line class="b" x1="130" y1="304" x2="480" y2="252" opacity="0.35"/><line class="a" x1="159" y1="351" x2="540" y2="299" opacity="0.35"/><line class="a" x1="-72" y1="398" x2="340" y2="346" opacity="0.35"/><line class="a" x1="-43" y1="445" x2="400" y2="393" opacity="0.35"/><line class="b" x1="-14" y1="492" x2="460" y2="440" opacity="0.72"/><line class="a" x1="15" y1="119" x2="520" y2="67" opacity="0.35"/><line class="a" x1="44" y1="166" x2="580" y2="114" opacity="0.35"/><line class="a" x1="73" y1="213" x2="640" y2="161" opacity="0.35"/></g>
  <g>
      <rect class="screen" x="160" y="124" width="400" height="270" />
      <circle class="ring" cx="280" cy="258" r="62" />
      <circle class="ring" cx="440" cy="258" r="62" />
      <line class="b thick" x1="324" y1="258" x2="396" y2="258" />
      <line class="b" x1="165" y1="359" x2="776" y2="307" opacity="0.72"/><line class="a" x1="-66" y1="406" x2="576" y2="354" opacity="0.35"/><line class="a" x1="-37" y1="453" x2="256" y2="401" opacity="0.35"/><line class="a" x1="-8" y1="80" x2="316" y2="28" opacity="0.35"/><line class="b" x1="21" y1="127" x2="376" y2="75" opacity="0.35"/><line class="a" x1="50" y1="174" x2="436" y2="122" opacity="0.72"/><line class="a" x1="79" y1="221" x2="496" y2="169" opacity="0.35"/><line class="a" x1="108" y1="268" x2="556" y2="216" opacity="0.35"/><line class="b" x1="137" y1="315" x2="616" y2="263" opacity="0.35"/><line class="a" x1="166" y1="362" x2="676" y2="310" opacity="0.35"/><line class="a" x1="-65" y1="409" x2="476" y2="357" opacity="0.72"/>
    </g>
  <g opacity=".38"><circle class="c" cx="481" cy="326" r="3" /><circle class="d" cx="548" cy="367" r="4" /><circle class="d" cx="615" cy="408" r="5" /><circle class="c" cx="137" cy="449" r="6" /><circle class="d" cx="204" cy="100" r="7" /><circle class="d" cx="271" cy="141" r="8" /><circle class="c" cx="338" cy="182" r="3" /><circle class="d" cx="405" cy="223" r="4" /><circle class="d" cx="472" cy="264" r="5" /><circle class="c" cx="539" cy="305" r="6" /></g>
</svg>